<svg version="1.1" viewBox="0 0 2048 466" width="119" height="27" xmlns="http://www.w3.org/2000/svg">
<path transform="translate(1439,93)" d="m0 0h16l10 5 7 8 15 28 20 39 12 22 11 23 3 10 5-13 20-39 10-19 12-23 12-22 5-6 6-4 6-2h14l9 4 8 7 4 8 1 4v12l-8 18-15 29-13 24 97 1 7 4 7 7 4 8 1 4v10l-4 10-8 9-8 4-6 1h-90l-2-1 20 41 11 23 8 18 2 6v10l-4 9-6 8-10 5-4 1h-12l-10-4-7-7-10-19-11-23-14-29-12-25-13-28-4-13-14 30-20 41-11 23-15 31-6 8-6 5-9 3h-12l-9-4-8-7-5-10-1-10 4-13 9-19 8-16 15-31 4-10h-86l-13-2-9-6-6-8-3-9v-9l4-10 4-6 6-5 6-3 8-1h87l-20-40-10-19-4-9-1-4v-9l4-11 8-9z" fill="#30845E" />
<path transform="translate(1240,83)" d="m0 0h38l32 1-2 30v226l2 29-4 1h-62l-3-1v-13l1-3-11 7-9 6-15 6-13 3-9 1h-25l-17-3-15-5-13-7-11-9-7-7-9-13-7-14-6-20-2-13-2-22 1-5 2-21 5-19 5-12 9-16 9-11 10-8 13-8 12-5 20-4h30l17 3 15 6 12 7 9 7v-54l-1-39zm-60 124-13 4-11 8-8 11-5 11-2 7-1 8v20l4 16 7 13 9 9 12 6 14 3h7l12-3 13-7 7-6 7-10 6-14 4-18-3-17-7-16-6-9-9-8-10-5-11-3z" fill="currentColor" />
<path transform="translate(272,152)" d="m0 0h35l16 3 16 6 13 7 11 9 8 8 9 13 8 16 5 16 4 24 2 23v6l-1 1h-154l6 18 7 11 8 6 9 4 8 2h16l14-4 11-7 8-9 4-9 17 4 43 12-1 5-8 16-8 11-7 8-14 10-16 8-17 5-21 3h-24l-16-2-18-5-16-8-9-6-12-11-10-13-9-17-6-20-3-19v-25l3-18 5-17 8-16 8-12 9-10 8-7 13-8 15-7 16-4zm7 52-13 4-10 8-6 9-4 8v3l24 1 62-1-3-9-4-8-4-5-9-6-13-4z" fill="currentColor" />
<path transform="translate(704,152)" d="m0 0h35l20 4 15 6 13 8 13 11 10 13 10 19 5 15 3 15 2 19v22l-153 1 5 16 6 10 9 8 13 5 4 1h16l12-3 11-6 9-9 5-10 10 1 50 14 1 2-8 16-7 11-9 10-10 8-14 8-13 5-16 4-16 2h-25l-15-2-18-5-16-8-11-8-8-7-11-14-7-12-6-17-4-14-2-20v-13l3-22 6-21 10-19 9-11 11-11 15-10 16-7 16-4zm7 52-10 3-10 6-6 7-7 14v2l14 1h70l3-2-5-12-7-9-8-6-13-4z" fill="currentColor" />
<path transform="translate(968,155)" d="m0 0h27l13 2 12 4 12 7 9 8 7 10 6 13 3 15 1 10 1 120 1 25-1 1h-70l-1-5 2-32v-93l-2-11-5-8-6-5-7-2h-15l-11 4-9 6-10 9-8 10-3 5v98l1 23-1 1h-69l-2-3 2-26v-157l-1-14v-10h58l11 1v13l-1 8 9-7 10-7 15-8 14-4z" fill="currentColor" />
<path transform="translate(485,153)" d="m0 0h38l19 3 16 5 14 8 10 9 7 8 8 16 3 8v4l-9 2-57 6-4-9-6-7-10-3h-20l-11 4-5 5v7l4 5 12 5 28 7 34 8 15 6 14 8 10 9 7 11 4 13 1 5v16l-3 16-8 16-10 11-14 9-19 7-21 4-10 1h-31l-21-3-15-4-16-7-10-7-7-6-10-14-6-14-3-12v-3l64-7h5l5 12 5 5 8 5 7 2 8 1h9l16-3 8-5 2-3v-8l-4-6-4-3-13-4-43-9-20-6-13-5-11-7-10-10-7-14-3-12v-18l3-13 6-12 7-9 9-8 17-9 13-4z" fill="currentColor" />
<path transform="translate(1890,106)" d="m0 0h69v14l-2 41 3-1 43-1v56l-1 1-31-2-14-1 1 95 3 7 5 4 6 2h14l15-5h2l2 16 3 28v8l-2 2-25 5h-42l-14-3-10-4-8-6-7-7-5-10-3-11-1-15v-106l-7 1-29 2h-6v-57h14l28 2z" fill="currentColor" />
<path transform="translate(138,156)" d="m0 0h33l18 3 1 4-13 50-4 10-10-3-13-3-15-1-15 3-10 5-11 10-7 12-3 12-1 14v50l2 39v8l-1 1h-70l-1-4 2-24v-159l-1-23h60l8 1 1 1v22l5-4 5-6 14-10 12-5z" fill="currentColor" />
<path transform="translate(1764,160)" d="m0 0h36l35 1v187l1 21-2 1h-66l-4-1 1-20v-164l-1-14z" fill="currentColor" />
<path transform="translate(1520,23)" d="m0 0h28l19 2 23 5 24 8 25 12 21 14 11 9 10 9 11 11 11 14 12 18 7 12 9 21 8 26 4 21 1 10v40l-3 21-6 23-8 21-8 16-11 18-13 17-14 15-12 11-16 12-15 9-15 8-21 8-21 6-25 4-12 1h-24l-19-2-23-5-24-8-25-12-17-11-13-10-12-11-14-14-10-13-10-15-13-25-8-21-4-15-4-22-1-9v-37l4-26 5-19 8-21 8-16 9-15 14-19 11-12 4-5 8-7 13-11 17-11 18-10 19-8 24-7 22-4zm-4 8-23 3-22 6-16 6-17 8-18 11-13 10-13 11-13 13-13 17-10 15-9 17-9 23-6 22-3 19-1 11v20l2 21 5 24 7 21 8 18 13 21 9 12 12 14 9 9 11 9 10 8 16 10 21 11 25 9 17 4 22 3h36l24-4 21-6 16-6 20-10 20-13 14-11 12-11 7-8 10-12 10-15 9-16 9-21 6-19 4-19 2-17v-29l-3-23-5-21-6-17-8-18-10-17-10-14-9-11-9-10-8-7-13-11-15-10-16-9-17-8-22-7-26-5-9-1z" fill="#2F835D" />
<path transform="translate(1764,84)" d="m0 0h71v51l-1 1h-69l-1-1z" fill="currentColor" />
<path transform="translate(1732,299)" d="m0 0h2l-2 9-10 23-14 23-13 17-14 15-12 11-16 12-15 9-15 8-21 8-21 6-25 4-12 1h-24l-19-2-23-5-24-8-25-12 1-2-3-3v-2l-2-1v-2l-2-2 2-1 18 10 15 7 24 8 20 4 15 2h36l24-4 21-6 16-6 20-10 20-13 14-11 11-10 7-8 10-12 10-15 9-16 7-16 2 1 2-3h2l1-4h2z" fill="#2F835D" />
<path transform="translate(1618,41)" d="m0 0 5 1 21 11 16 11 11 9 10 9 11 11 11 14 12 18 7 12 9 21 8 26 4 21 1 10v40l-3 21-6 23-3 1-1 3-2 1-1 3-5 4 1-7 6-19 4-19 2-17v-29l-3-23-5-21-6-17-8-18-10-17-10-14-9-11-8-9-8-7-13-11-15-10-16-9-7-4 3-1v-5l-3-1z" fill="#088347" />
<path transform="translate(1324,227)" d="m0 0 3 1v3l3-1 3 34 5 24 7 21 8 18 13 21 9 12 12 14 8 8 11 9 10 8 8 5 2 4 1 5 3 1 1 3-5-1-14-9-13-10-12-11-14-14-10-13-10-15-13-25-8-21-4-15-4-22z" fill="#068346" /><path transform="translate(1737,262)" d="m0 0 4 3 1 6-6 25-1 3-3 1-1 3-2 1-1 3-5 4 1-7 6-19 4-19 3-1z" fill="#2E835D" />
<path transform="translate(1732,279)" d="m0 0h1v7h2l2 2-1 8-1 3-3 1-1 3-2 1-1 3-5 4 1-7 6-19z" fill="#078346" />
</svg>